<mxfile host="app.diagrams.net" modified="2022-11-08T14:39:11.534Z" agent="5.0 (Windows NT 10.0; Win64; x64) AppleWebKit/537.36 (KHTML, like Gecko) Chrome/107.0.0.0 Safari/537.36" etag="CQas_a4ARw30k6j9weAH" version="20.5.3" type="github">
  <diagram id="i0Xd0dygu2xvrv-u_ZZ6" name="Page-1">
    <mxGraphModel dx="2078" dy="993" grid="1" gridSize="10" guides="1" tooltips="1" connect="1" arrows="1" fold="1" page="1" pageScale="1" pageWidth="850" pageHeight="1100" math="0" shadow="0">
      <root>
        <mxCell id="0" />
        <mxCell id="1" parent="0" />
        <mxCell id="z7UYzFLhJ39N4LHVXeEL-1" value="Front Page" style="rounded=1;whiteSpace=wrap;html=1;" vertex="1" parent="1">
          <mxGeometry x="340" y="40" width="120" height="60" as="geometry" />
        </mxCell>
        <mxCell id="z7UYzFLhJ39N4LHVXeEL-22" style="edgeStyle=none;rounded=0;orthogonalLoop=1;jettySize=auto;html=1;entryX=0.5;entryY=0;entryDx=0;entryDy=0;" edge="1" parent="1" source="z7UYzFLhJ39N4LHVXeEL-2" target="z7UYzFLhJ39N4LHVXeEL-12">
          <mxGeometry relative="1" as="geometry" />
        </mxCell>
        <mxCell id="z7UYzFLhJ39N4LHVXeEL-23" style="edgeStyle=none;rounded=0;orthogonalLoop=1;jettySize=auto;html=1;entryX=0.5;entryY=0;entryDx=0;entryDy=0;" edge="1" parent="1" source="z7UYzFLhJ39N4LHVXeEL-2" target="z7UYzFLhJ39N4LHVXeEL-13">
          <mxGeometry relative="1" as="geometry" />
        </mxCell>
        <mxCell id="z7UYzFLhJ39N4LHVXeEL-24" style="edgeStyle=none;rounded=0;orthogonalLoop=1;jettySize=auto;html=1;exitX=0.028;exitY=0.938;exitDx=0;exitDy=0;entryX=0;entryY=0.667;entryDx=0;entryDy=0;entryPerimeter=0;exitPerimeter=0;" edge="1" parent="1" source="z7UYzFLhJ39N4LHVXeEL-2" target="z7UYzFLhJ39N4LHVXeEL-14">
          <mxGeometry relative="1" as="geometry">
            <Array as="points">
              <mxPoint x="30" y="220" />
            </Array>
          </mxGeometry>
        </mxCell>
        <mxCell id="z7UYzFLhJ39N4LHVXeEL-25" style="edgeStyle=none;rounded=0;orthogonalLoop=1;jettySize=auto;html=1;exitX=0.02;exitY=0.93;exitDx=0;exitDy=0;entryX=0;entryY=0.667;entryDx=0;entryDy=0;entryPerimeter=0;exitPerimeter=0;" edge="1" parent="1" source="z7UYzFLhJ39N4LHVXeEL-2" target="z7UYzFLhJ39N4LHVXeEL-16">
          <mxGeometry relative="1" as="geometry">
            <Array as="points">
              <mxPoint x="30" y="210" />
              <mxPoint x="20" y="240" />
            </Array>
          </mxGeometry>
        </mxCell>
        <mxCell id="z7UYzFLhJ39N4LHVXeEL-30" style="edgeStyle=none;rounded=0;orthogonalLoop=1;jettySize=auto;html=1;exitX=0.976;exitY=0.914;exitDx=0;exitDy=0;entryX=1;entryY=0.5;entryDx=0;entryDy=0;exitPerimeter=0;" edge="1" parent="1" source="z7UYzFLhJ39N4LHVXeEL-2" target="z7UYzFLhJ39N4LHVXeEL-17">
          <mxGeometry relative="1" as="geometry">
            <Array as="points">
              <mxPoint x="160" y="230" />
            </Array>
          </mxGeometry>
        </mxCell>
        <mxCell id="z7UYzFLhJ39N4LHVXeEL-31" style="edgeStyle=none;rounded=0;orthogonalLoop=1;jettySize=auto;html=1;exitX=0.988;exitY=0.898;exitDx=0;exitDy=0;entryX=1;entryY=0.5;entryDx=0;entryDy=0;exitPerimeter=0;" edge="1" parent="1" source="z7UYzFLhJ39N4LHVXeEL-2" target="z7UYzFLhJ39N4LHVXeEL-19">
          <mxGeometry relative="1" as="geometry">
            <Array as="points">
              <mxPoint x="170" y="240" />
              <mxPoint x="159" y="290" />
            </Array>
          </mxGeometry>
        </mxCell>
        <mxCell id="z7UYzFLhJ39N4LHVXeEL-2" value="News" style="rounded=1;whiteSpace=wrap;html=1;arcSize=21;" vertex="1" parent="1">
          <mxGeometry x="40" y="120" width="120" height="60" as="geometry" />
        </mxCell>
        <mxCell id="z7UYzFLhJ39N4LHVXeEL-82" style="edgeStyle=none;rounded=0;orthogonalLoop=1;jettySize=auto;html=1;exitX=0.25;exitY=1;exitDx=0;exitDy=0;entryX=0.5;entryY=0;entryDx=0;entryDy=0;fontSize=8;" edge="1" parent="1" source="z7UYzFLhJ39N4LHVXeEL-3" target="z7UYzFLhJ39N4LHVXeEL-32">
          <mxGeometry relative="1" as="geometry" />
        </mxCell>
        <mxCell id="z7UYzFLhJ39N4LHVXeEL-83" style="edgeStyle=none;rounded=0;orthogonalLoop=1;jettySize=auto;html=1;exitX=0.75;exitY=1;exitDx=0;exitDy=0;entryX=0.5;entryY=0;entryDx=0;entryDy=0;fontSize=8;" edge="1" parent="1">
          <mxGeometry relative="1" as="geometry">
            <mxPoint x="435" y="180" as="sourcePoint" />
            <mxPoint x="425" y="190" as="targetPoint" />
          </mxGeometry>
        </mxCell>
        <mxCell id="z7UYzFLhJ39N4LHVXeEL-91" style="edgeStyle=none;rounded=0;orthogonalLoop=1;jettySize=auto;html=1;exitX=0.75;exitY=1;exitDx=0;exitDy=0;entryX=0.5;entryY=0;entryDx=0;entryDy=0;fontSize=8;" edge="1" parent="1" source="z7UYzFLhJ39N4LHVXeEL-3" target="z7UYzFLhJ39N4LHVXeEL-38">
          <mxGeometry relative="1" as="geometry" />
        </mxCell>
        <mxCell id="z7UYzFLhJ39N4LHVXeEL-3" value="Culture" style="rounded=1;whiteSpace=wrap;html=1;" vertex="1" parent="1">
          <mxGeometry x="190" y="120" width="120" height="60" as="geometry" />
        </mxCell>
        <mxCell id="z7UYzFLhJ39N4LHVXeEL-87" style="edgeStyle=none;rounded=0;orthogonalLoop=1;jettySize=auto;html=1;exitX=0.25;exitY=1;exitDx=0;exitDy=0;entryX=0.5;entryY=0;entryDx=0;entryDy=0;fontSize=8;" edge="1" parent="1" source="z7UYzFLhJ39N4LHVXeEL-4" target="z7UYzFLhJ39N4LHVXeEL-53">
          <mxGeometry relative="1" as="geometry" />
        </mxCell>
        <mxCell id="z7UYzFLhJ39N4LHVXeEL-4" value="Music" style="rounded=1;whiteSpace=wrap;html=1;" vertex="1" parent="1">
          <mxGeometry x="340" y="120" width="120" height="60" as="geometry" />
        </mxCell>
        <mxCell id="z7UYzFLhJ39N4LHVXeEL-96" style="edgeStyle=none;rounded=0;orthogonalLoop=1;jettySize=auto;html=1;exitX=0.25;exitY=1;exitDx=0;exitDy=0;entryX=0.5;entryY=0;entryDx=0;entryDy=0;fontSize=8;" edge="1" parent="1" source="z7UYzFLhJ39N4LHVXeEL-5" target="z7UYzFLhJ39N4LHVXeEL-63">
          <mxGeometry relative="1" as="geometry" />
        </mxCell>
        <mxCell id="z7UYzFLhJ39N4LHVXeEL-5" value="Podcasts and Shows" style="rounded=1;whiteSpace=wrap;html=1;" vertex="1" parent="1">
          <mxGeometry x="520" y="120" width="120" height="60" as="geometry" />
        </mxCell>
        <mxCell id="z7UYzFLhJ39N4LHVXeEL-6" value="Search" style="rounded=1;whiteSpace=wrap;html=1;" vertex="1" parent="1">
          <mxGeometry x="680" y="120" width="120" height="60" as="geometry" />
        </mxCell>
        <mxCell id="z7UYzFLhJ39N4LHVXeEL-7" value="" style="endArrow=none;html=1;rounded=0;entryX=0;entryY=0.75;entryDx=0;entryDy=0;" edge="1" parent="1" target="z7UYzFLhJ39N4LHVXeEL-1">
          <mxGeometry width="50" height="50" relative="1" as="geometry">
            <mxPoint x="140" y="120" as="sourcePoint" />
            <mxPoint x="190" y="70" as="targetPoint" />
          </mxGeometry>
        </mxCell>
        <mxCell id="z7UYzFLhJ39N4LHVXeEL-8" value="" style="endArrow=none;html=1;rounded=0;entryX=0.021;entryY=0.938;entryDx=0;entryDy=0;entryPerimeter=0;" edge="1" parent="1" target="z7UYzFLhJ39N4LHVXeEL-1">
          <mxGeometry width="50" height="50" relative="1" as="geometry">
            <mxPoint x="270" y="120" as="sourcePoint" />
            <mxPoint x="340" y="100" as="targetPoint" />
            <Array as="points">
              <mxPoint x="300" y="110" />
            </Array>
          </mxGeometry>
        </mxCell>
        <mxCell id="z7UYzFLhJ39N4LHVXeEL-9" value="" style="endArrow=none;html=1;rounded=0;exitX=0.5;exitY=0;exitDx=0;exitDy=0;entryX=0.5;entryY=1;entryDx=0;entryDy=0;" edge="1" parent="1" source="z7UYzFLhJ39N4LHVXeEL-4" target="z7UYzFLhJ39N4LHVXeEL-1">
          <mxGeometry width="50" height="50" relative="1" as="geometry">
            <mxPoint x="375" y="140" as="sourcePoint" />
            <mxPoint x="425" y="90" as="targetPoint" />
          </mxGeometry>
        </mxCell>
        <mxCell id="z7UYzFLhJ39N4LHVXeEL-10" value="" style="endArrow=none;html=1;rounded=0;entryX=0.5;entryY=0;entryDx=0;entryDy=0;exitX=0.989;exitY=0.938;exitDx=0;exitDy=0;exitPerimeter=0;" edge="1" parent="1" source="z7UYzFLhJ39N4LHVXeEL-1" target="z7UYzFLhJ39N4LHVXeEL-5">
          <mxGeometry width="50" height="50" relative="1" as="geometry">
            <mxPoint x="500" y="100" as="sourcePoint" />
            <mxPoint x="572.5200000000001" y="76.28000000000009" as="targetPoint" />
          </mxGeometry>
        </mxCell>
        <mxCell id="z7UYzFLhJ39N4LHVXeEL-11" value="" style="endArrow=none;html=1;rounded=0;entryX=0.5;entryY=0;entryDx=0;entryDy=0;" edge="1" parent="1" source="z7UYzFLhJ39N4LHVXeEL-1" target="z7UYzFLhJ39N4LHVXeEL-6">
          <mxGeometry width="50" height="50" relative="1" as="geometry">
            <mxPoint x="610" y="130" as="sourcePoint" />
            <mxPoint x="660" y="80" as="targetPoint" />
          </mxGeometry>
        </mxCell>
        <mxCell id="z7UYzFLhJ39N4LHVXeEL-12" value="National" style="ellipse;whiteSpace=wrap;html=1;" vertex="1" parent="1">
          <mxGeometry x="40" y="190" width="50" height="30" as="geometry" />
        </mxCell>
        <mxCell id="z7UYzFLhJ39N4LHVXeEL-13" value="World" style="ellipse;whiteSpace=wrap;html=1;" vertex="1" parent="1">
          <mxGeometry x="100" y="190" width="50" height="30" as="geometry" />
        </mxCell>
        <mxCell id="z7UYzFLhJ39N4LHVXeEL-14" value="Politics" style="ellipse;whiteSpace=wrap;html=1;" vertex="1" parent="1">
          <mxGeometry x="40" y="230" width="50" height="30" as="geometry" />
        </mxCell>
        <mxCell id="z7UYzFLhJ39N4LHVXeEL-15" value="Business" style="ellipse;whiteSpace=wrap;html=1;" vertex="1" parent="1">
          <mxGeometry x="100" y="230" width="50" height="30" as="geometry" />
        </mxCell>
        <mxCell id="z7UYzFLhJ39N4LHVXeEL-16" value="Health" style="ellipse;whiteSpace=wrap;html=1;" vertex="1" parent="1">
          <mxGeometry x="40" y="270" width="50" height="30" as="geometry" />
        </mxCell>
        <mxCell id="z7UYzFLhJ39N4LHVXeEL-17" value="Science" style="ellipse;whiteSpace=wrap;html=1;" vertex="1" parent="1">
          <mxGeometry x="100" y="270" width="50" height="30" as="geometry" />
        </mxCell>
        <mxCell id="z7UYzFLhJ39N4LHVXeEL-18" value="Climate" style="ellipse;whiteSpace=wrap;html=1;" vertex="1" parent="1">
          <mxGeometry x="40" y="310" width="50" height="30" as="geometry" />
        </mxCell>
        <mxCell id="z7UYzFLhJ39N4LHVXeEL-19" value="Race" style="ellipse;whiteSpace=wrap;html=1;" vertex="1" parent="1">
          <mxGeometry x="100" y="310" width="50" height="30" as="geometry" />
        </mxCell>
        <mxCell id="z7UYzFLhJ39N4LHVXeEL-28" style="edgeStyle=none;rounded=0;orthogonalLoop=1;jettySize=auto;html=1;entryX=0;entryY=0.5;entryDx=0;entryDy=0;exitX=0.016;exitY=0.898;exitDx=0;exitDy=0;exitPerimeter=0;" edge="1" parent="1" source="z7UYzFLhJ39N4LHVXeEL-2" target="z7UYzFLhJ39N4LHVXeEL-18">
          <mxGeometry relative="1" as="geometry">
            <mxPoint x="40" y="180" as="sourcePoint" />
            <mxPoint x="38" y="330" as="targetPoint" />
            <Array as="points">
              <mxPoint x="10" y="240" />
            </Array>
          </mxGeometry>
        </mxCell>
        <mxCell id="z7UYzFLhJ39N4LHVXeEL-29" style="edgeStyle=none;rounded=0;orthogonalLoop=1;jettySize=auto;html=1;exitX=0.952;exitY=0.954;exitDx=0;exitDy=0;entryX=1;entryY=0.5;entryDx=0;entryDy=0;exitPerimeter=0;" edge="1" parent="1" source="z7UYzFLhJ39N4LHVXeEL-2" target="z7UYzFLhJ39N4LHVXeEL-15">
          <mxGeometry relative="1" as="geometry">
            <mxPoint x="180" y="240" as="sourcePoint" />
            <mxPoint x="176.64" y="313.73" as="targetPoint" />
            <Array as="points">
              <mxPoint x="154" y="210" />
            </Array>
          </mxGeometry>
        </mxCell>
        <mxCell id="z7UYzFLhJ39N4LHVXeEL-32" value="&lt;font style=&quot;font-size: 8px;&quot;&gt;Books&lt;/font&gt;" style="ellipse;whiteSpace=wrap;html=1;" vertex="1" parent="1">
          <mxGeometry x="200" y="190" width="40" height="30" as="geometry" />
        </mxCell>
        <mxCell id="z7UYzFLhJ39N4LHVXeEL-34" style="edgeStyle=none;rounded=0;orthogonalLoop=1;jettySize=auto;html=1;exitX=1;exitY=0.5;exitDx=0;exitDy=0;" edge="1" parent="1" source="z7UYzFLhJ39N4LHVXeEL-12" target="z7UYzFLhJ39N4LHVXeEL-12">
          <mxGeometry relative="1" as="geometry" />
        </mxCell>
        <mxCell id="z7UYzFLhJ39N4LHVXeEL-38" value="&lt;font style=&quot;font-size: 8px;&quot;&gt;Movies&lt;/font&gt;" style="ellipse;whiteSpace=wrap;html=1;" vertex="1" parent="1">
          <mxGeometry x="250" y="190" width="40" height="30" as="geometry" />
        </mxCell>
        <mxCell id="z7UYzFLhJ39N4LHVXeEL-39" value="&lt;font style=&quot;font-size: 8px;&quot;&gt;Television&lt;/font&gt;" style="ellipse;whiteSpace=wrap;html=1;" vertex="1" parent="1">
          <mxGeometry x="200" y="230" width="40" height="30" as="geometry" />
        </mxCell>
        <mxCell id="z7UYzFLhJ39N4LHVXeEL-40" value="&lt;font style=&quot;font-size: 8px;&quot;&gt;Pop Culture&lt;/font&gt;" style="ellipse;whiteSpace=wrap;html=1;" vertex="1" parent="1">
          <mxGeometry x="250" y="230" width="40" height="30" as="geometry" />
        </mxCell>
        <mxCell id="z7UYzFLhJ39N4LHVXeEL-41" value="&lt;font style=&quot;font-size: 8px;&quot;&gt;Food&lt;/font&gt;" style="ellipse;whiteSpace=wrap;html=1;" vertex="1" parent="1">
          <mxGeometry x="200" y="270" width="40" height="30" as="geometry" />
        </mxCell>
        <mxCell id="z7UYzFLhJ39N4LHVXeEL-42" value="&lt;font style=&quot;font-size: 8px;&quot;&gt;Art &amp;amp; Design&lt;/font&gt;" style="ellipse;whiteSpace=wrap;html=1;" vertex="1" parent="1">
          <mxGeometry x="250" y="270" width="40" height="30" as="geometry" />
        </mxCell>
        <mxCell id="z7UYzFLhJ39N4LHVXeEL-43" value="&lt;font style=&quot;font-size: 8px;&quot;&gt;Performing arts&lt;/font&gt;" style="ellipse;whiteSpace=wrap;html=1;" vertex="1" parent="1">
          <mxGeometry x="200" y="310" width="40" height="30" as="geometry" />
        </mxCell>
        <mxCell id="z7UYzFLhJ39N4LHVXeEL-44" value="&lt;font style=&quot;font-size: 8px;&quot;&gt;Life Kit&lt;/font&gt;" style="ellipse;whiteSpace=wrap;html=1;" vertex="1" parent="1">
          <mxGeometry x="250" y="310" width="40" height="30" as="geometry" />
        </mxCell>
        <mxCell id="z7UYzFLhJ39N4LHVXeEL-53" value="&lt;font style=&quot;font-size: 8px;&quot;&gt;Tiny Desk&lt;/font&gt;" style="ellipse;whiteSpace=wrap;html=1;" vertex="1" parent="1">
          <mxGeometry x="355" y="190" width="40" height="30" as="geometry" />
        </mxCell>
        <mxCell id="z7UYzFLhJ39N4LHVXeEL-54" value="&lt;font style=&quot;font-size: 8px;&quot;&gt;#nowplaying&lt;/font&gt;" style="ellipse;whiteSpace=wrap;html=1;" vertex="1" parent="1">
          <mxGeometry x="405" y="190" width="40" height="30" as="geometry" />
        </mxCell>
        <mxCell id="z7UYzFLhJ39N4LHVXeEL-55" value="&lt;font style=&quot;font-size: 8px;&quot;&gt;All songs considered&lt;/font&gt;" style="ellipse;whiteSpace=wrap;html=1;" vertex="1" parent="1">
          <mxGeometry x="355" y="230" width="40" height="30" as="geometry" />
        </mxCell>
        <mxCell id="z7UYzFLhJ39N4LHVXeEL-56" value="&lt;font style=&quot;font-size: 8px;&quot;&gt;Music Features&lt;/font&gt;" style="ellipse;whiteSpace=wrap;html=1;" vertex="1" parent="1">
          <mxGeometry x="405" y="230" width="40" height="30" as="geometry" />
        </mxCell>
        <mxCell id="z7UYzFLhJ39N4LHVXeEL-57" value="&lt;font style=&quot;font-size: 8px;&quot;&gt;Live Sessions&lt;/font&gt;" style="ellipse;whiteSpace=wrap;html=1;" vertex="1" parent="1">
          <mxGeometry x="355" y="270" width="40" height="30" as="geometry" />
        </mxCell>
        <mxCell id="z7UYzFLhJ39N4LHVXeEL-63" value="&lt;span style=&quot;font-size: 8px;&quot;&gt;Morning Edition&lt;/span&gt;" style="ellipse;whiteSpace=wrap;html=1;" vertex="1" parent="1">
          <mxGeometry x="535" y="190" width="40" height="30" as="geometry" />
        </mxCell>
        <mxCell id="z7UYzFLhJ39N4LHVXeEL-64" value="&lt;font style=&quot;font-size: 8px;&quot;&gt;All Things Considered&lt;/font&gt;" style="ellipse;whiteSpace=wrap;html=1;" vertex="1" parent="1">
          <mxGeometry x="585" y="190" width="40" height="30" as="geometry" />
        </mxCell>
        <mxCell id="z7UYzFLhJ39N4LHVXeEL-65" value="&lt;font style=&quot;font-size: 8px;&quot;&gt;Fresh Air&lt;/font&gt;" style="ellipse;whiteSpace=wrap;html=1;" vertex="1" parent="1">
          <mxGeometry x="535" y="230" width="40" height="30" as="geometry" />
        </mxCell>
        <mxCell id="z7UYzFLhJ39N4LHVXeEL-66" value="&lt;font style=&quot;font-size: 8px;&quot;&gt;Up First&lt;/font&gt;" style="ellipse;whiteSpace=wrap;html=1;" vertex="1" parent="1">
          <mxGeometry x="585" y="230" width="40" height="30" as="geometry" />
        </mxCell>
        <mxCell id="z7UYzFLhJ39N4LHVXeEL-76" style="edgeStyle=none;rounded=0;orthogonalLoop=1;jettySize=auto;html=1;exitX=0.028;exitY=0.938;exitDx=0;exitDy=0;entryX=0;entryY=0.667;entryDx=0;entryDy=0;entryPerimeter=0;exitPerimeter=0;" edge="1" parent="1">
          <mxGeometry relative="1" as="geometry">
            <mxPoint x="200" y="182.39999999999998" as="sourcePoint" />
            <mxPoint x="196.64" y="256.13" as="targetPoint" />
            <Array as="points">
              <mxPoint x="186.64" y="226.12" />
            </Array>
          </mxGeometry>
        </mxCell>
        <mxCell id="z7UYzFLhJ39N4LHVXeEL-77" style="edgeStyle=none;rounded=0;orthogonalLoop=1;jettySize=auto;html=1;exitX=0.02;exitY=0.93;exitDx=0;exitDy=0;entryX=0;entryY=0.667;entryDx=0;entryDy=0;entryPerimeter=0;exitPerimeter=0;" edge="1" parent="1">
          <mxGeometry relative="1" as="geometry">
            <mxPoint x="199.03999999999996" y="181.91999999999996" as="sourcePoint" />
            <mxPoint x="196.64" y="296.12999999999977" as="targetPoint" />
            <Array as="points">
              <mxPoint x="186.64" y="216.12" />
              <mxPoint x="176.64" y="246.12" />
            </Array>
          </mxGeometry>
        </mxCell>
        <mxCell id="z7UYzFLhJ39N4LHVXeEL-78" style="edgeStyle=none;rounded=0;orthogonalLoop=1;jettySize=auto;html=1;entryX=0;entryY=0.5;entryDx=0;entryDy=0;exitX=0.016;exitY=0.898;exitDx=0;exitDy=0;exitPerimeter=0;" edge="1" parent="1">
          <mxGeometry relative="1" as="geometry">
            <mxPoint x="198.55999999999995" y="179.9999999999999" as="sourcePoint" />
            <mxPoint x="196.63999999999805" y="331.12" as="targetPoint" />
            <Array as="points">
              <mxPoint x="166.64" y="246.12" />
            </Array>
          </mxGeometry>
        </mxCell>
        <mxCell id="z7UYzFLhJ39N4LHVXeEL-81" style="edgeStyle=none;rounded=0;orthogonalLoop=1;jettySize=auto;html=1;exitX=0.952;exitY=0.954;exitDx=0;exitDy=0;entryX=1;entryY=0.5;entryDx=0;entryDy=0;exitPerimeter=0;" edge="1" parent="1">
          <mxGeometry relative="1" as="geometry">
            <mxPoint x="449.24" y="180" as="sourcePoint" />
            <mxPoint x="445" y="247.76" as="targetPoint" />
            <Array as="points">
              <mxPoint x="449" y="212.76" />
            </Array>
          </mxGeometry>
        </mxCell>
        <mxCell id="z7UYzFLhJ39N4LHVXeEL-84" style="edgeStyle=none;rounded=0;orthogonalLoop=1;jettySize=auto;html=1;exitX=0.028;exitY=0.938;exitDx=0;exitDy=0;entryX=0;entryY=0.667;entryDx=0;entryDy=0;entryPerimeter=0;exitPerimeter=0;" edge="1" parent="1">
          <mxGeometry relative="1" as="geometry">
            <mxPoint x="355" y="182.39999999999998" as="sourcePoint" />
            <mxPoint x="351.64" y="256.13" as="targetPoint" />
            <Array as="points">
              <mxPoint x="341.64" y="226.12" />
            </Array>
          </mxGeometry>
        </mxCell>
        <mxCell id="z7UYzFLhJ39N4LHVXeEL-85" style="edgeStyle=none;rounded=0;orthogonalLoop=1;jettySize=auto;html=1;exitX=0.02;exitY=0.93;exitDx=0;exitDy=0;entryX=0;entryY=0.667;entryDx=0;entryDy=0;entryPerimeter=0;exitPerimeter=0;" edge="1" parent="1">
          <mxGeometry relative="1" as="geometry">
            <mxPoint x="354.03999999999996" y="181.91999999999996" as="sourcePoint" />
            <mxPoint x="351.64" y="296.12999999999977" as="targetPoint" />
            <Array as="points">
              <mxPoint x="341.64" y="216.12" />
              <mxPoint x="331.64" y="246.12" />
            </Array>
          </mxGeometry>
        </mxCell>
        <mxCell id="z7UYzFLhJ39N4LHVXeEL-88" style="edgeStyle=none;rounded=0;orthogonalLoop=1;jettySize=auto;html=1;exitX=0.976;exitY=0.914;exitDx=0;exitDy=0;entryX=1;entryY=0.5;entryDx=0;entryDy=0;exitPerimeter=0;" edge="1" parent="1">
          <mxGeometry relative="1" as="geometry">
            <mxPoint x="297.12" y="180.96000000000004" as="sourcePoint" />
            <mxPoint x="290" y="291.12" as="targetPoint" />
            <Array as="points">
              <mxPoint x="300" y="236.12" />
            </Array>
          </mxGeometry>
        </mxCell>
        <mxCell id="z7UYzFLhJ39N4LHVXeEL-89" style="edgeStyle=none;rounded=0;orthogonalLoop=1;jettySize=auto;html=1;exitX=0.988;exitY=0.898;exitDx=0;exitDy=0;entryX=1;entryY=0.5;entryDx=0;entryDy=0;exitPerimeter=0;" edge="1" parent="1">
          <mxGeometry relative="1" as="geometry">
            <mxPoint x="298.56000000000006" y="180" as="sourcePoint" />
            <mxPoint x="290" y="331.12" as="targetPoint" />
            <Array as="points">
              <mxPoint x="310" y="246.12" />
              <mxPoint x="299" y="296.12" />
            </Array>
          </mxGeometry>
        </mxCell>
        <mxCell id="z7UYzFLhJ39N4LHVXeEL-90" style="edgeStyle=none;rounded=0;orthogonalLoop=1;jettySize=auto;html=1;exitX=0.952;exitY=0.954;exitDx=0;exitDy=0;entryX=1;entryY=0.5;entryDx=0;entryDy=0;exitPerimeter=0;" edge="1" parent="1">
          <mxGeometry relative="1" as="geometry">
            <mxPoint x="294.24" y="183.36" as="sourcePoint" />
            <mxPoint x="290" y="251.12" as="targetPoint" />
            <Array as="points">
              <mxPoint x="294" y="216.12" />
            </Array>
          </mxGeometry>
        </mxCell>
        <mxCell id="z7UYzFLhJ39N4LHVXeEL-92" style="edgeStyle=none;rounded=0;orthogonalLoop=1;jettySize=auto;html=1;exitX=0.028;exitY=0.938;exitDx=0;exitDy=0;entryX=0;entryY=0.667;entryDx=0;entryDy=0;entryPerimeter=0;exitPerimeter=0;" edge="1" parent="1">
          <mxGeometry relative="1" as="geometry">
            <mxPoint x="535" y="180.48" as="sourcePoint" />
            <mxPoint x="531.64" y="254.21" as="targetPoint" />
            <Array as="points">
              <mxPoint x="521.64" y="224.20000000000002" />
            </Array>
          </mxGeometry>
        </mxCell>
        <mxCell id="z7UYzFLhJ39N4LHVXeEL-94" style="edgeStyle=none;rounded=0;orthogonalLoop=1;jettySize=auto;html=1;exitX=0.75;exitY=1;exitDx=0;exitDy=0;entryX=0.5;entryY=0;entryDx=0;entryDy=0;fontSize=8;" edge="1" parent="1">
          <mxGeometry relative="1" as="geometry">
            <mxPoint x="620" y="180" as="sourcePoint" />
            <mxPoint x="610" y="190" as="targetPoint" />
          </mxGeometry>
        </mxCell>
        <mxCell id="z7UYzFLhJ39N4LHVXeEL-95" style="edgeStyle=none;rounded=0;orthogonalLoop=1;jettySize=auto;html=1;exitX=0.952;exitY=0.954;exitDx=0;exitDy=0;entryX=1;entryY=0.5;entryDx=0;entryDy=0;exitPerimeter=0;" edge="1" parent="1">
          <mxGeometry relative="1" as="geometry">
            <mxPoint x="634.24" y="180" as="sourcePoint" />
            <mxPoint x="630" y="247.76" as="targetPoint" />
            <Array as="points">
              <mxPoint x="634" y="212.76" />
            </Array>
          </mxGeometry>
        </mxCell>
      </root>
    </mxGraphModel>
  </diagram>
</mxfile>
